<?xml version="1.0" encoding="UTF-8" standalone="no"?><!DOCTYPE svg PUBLIC "-//W3C//DTD SVG 1.1//EN" "http://www.w3.org/Graphics/SVG/1.1/DTD/svg11.dtd"><svg width="100%" height="100%" viewBox="0 0 256 256" version="1.1" xmlns="http://www.w3.org/2000/svg" xmlns:xlink="http://www.w3.org/1999/xlink" xml:space="preserve" xmlns:serif="http://www.serif.com/" style="fill-rule:evenodd;clip-rule:evenodd;stroke-linejoin:round;stroke-miterlimit:2;"><rect id="Artboard1" x="0" y="0" width="256" height="256" style="fill:none;"/><g><path d="M168.944,75.603l-42.215,18.43l-42.283,-18.43l0,21.886l42.283,18.838l42.215,-18.838l-0,-21.886Z" style="fill:#bc2b0b;"/><path d="M126.729,61.034l42.215,14.569l-42.215,18.43l-42.283,-18.43l42.283,-14.569Z" style="fill:#e30613;"/><path d="M16.754,158.745l5.217,-0c0.542,3.456 3.795,5.217 9.69,5.217c2.1,0 3.93,-0.406 5.353,-1.152c1.762,-0.948 2.643,-2.371 2.643,-4.269c-0,-2.574 -2.169,-4.201 -6.438,-5.014l-5.42,-0.948c-3.185,-0.543 -5.489,-1.356 -7.048,-2.372c-2.1,-1.355 -3.184,-3.388 -3.184,-6.031c-0,-3.185 1.287,-5.624 3.93,-7.386c2.236,-1.49 5.082,-2.304 8.47,-2.304c7.25,0 11.587,2.779 13.078,8.335l-5.15,0.068c-1.017,-2.846 -3.727,-4.269 -7.996,-4.269c-1.829,-0 -3.388,0.339 -4.608,1.016c-1.626,0.881 -2.439,2.101 -2.439,3.795c0,1.558 0.745,2.643 2.168,3.185c0.271,0.135 1.762,0.406 4.269,0.813l4.811,0.813c3.185,0.542 5.489,1.355 6.912,2.304c2.642,1.762 3.998,4.269 3.998,7.453c-0,3.456 -1.491,6.099 -4.405,7.928c-2.507,1.491 -5.624,2.304 -9.283,2.304c-3.523,0 -6.505,-0.745 -9.012,-2.236c-2.982,-1.626 -4.743,-4.065 -5.556,-7.25Zm42.485,-12.807l0,8.402c0,2.372 0.881,4.473 2.643,6.438c1.762,1.897 3.795,2.913 6.099,2.913c2.981,0 5.217,-1.355 6.776,-4.065c1.152,-1.965 1.761,-4.947 1.761,-8.877c0,-3.388 -0.542,-6.234 -1.694,-8.47c-1.49,-2.914 -3.726,-4.337 -6.843,-4.337c-2.101,0 -4.066,0.813 -5.692,2.44c-1.627,1.558 -2.575,3.388 -3.05,5.556Zm-1.49,16.398l-1.423,15.585c-0.407,0.881 -3.388,6.844 -3.388,6.844c-0.204,-0 -0.271,-0.136 -0.271,-1.491l-0,-48.788c0.474,0 1.016,0 1.694,-0.067l1.219,-0c1.017,-0 1.559,0.339 1.694,1.016l0,5.421l0.136,-0c1.897,-4.811 5.285,-7.25 10.232,-7.25c4.269,-0 7.657,1.897 10.028,5.624c2.033,3.184 3.05,6.979 3.05,11.519c-0,4.608 -0.881,8.335 -2.643,11.248c-2.507,4.134 -5.963,6.166 -10.435,6.166c-4.269,0 -7.589,-1.897 -9.893,-5.827Zm38.149,3.93l-0,1.355l-10.096,0l-0,-1.355l1.965,0l-0,-31.712c0.474,0 1.016,0 1.694,-0.068l1.152,0c1.016,0 1.558,0.407 1.694,1.288l-0,6.505l0.135,-0c2.101,-6.099 5.353,-8.944 9.69,-8.673l1.897,0.135l0,4.879l-1.016,-0c-2.711,-0 -4.947,0.949 -6.776,2.846c-1.83,1.897 -2.914,4.201 -3.253,6.911c-0.068,0.678 -0.135,1.559 -0.135,2.508l-0,15.381l3.049,0Zm17.143,-0.135l0,-32.051l5.15,-0l0,31.983l2.778,-0l0,1.491l-10.028,-0l-0,-1.423l2.1,-0Zm38.014,-25.478l-0.136,-0c-2.1,-4.608 -5.556,-6.98 -10.299,-6.98c-4.134,0 -7.318,1.694 -9.351,5.15c-1.016,1.762 -1.559,5.218 -1.559,10.503l0,18.295l5.082,0l0,-20.531c0,-3.049 0.272,-5.082 0.881,-6.099c1.152,-1.965 3.05,-2.981 5.692,-2.981c2.711,0 4.947,1.084 6.844,3.32c1.762,2.101 2.575,5.082 2.575,8.877l-0,17.279l5.082,-0l0,-33.067c-0.542,-0 -1.152,-0 -1.83,-0.068l-1.287,-0c-1.016,-0 -1.558,0.339 -1.694,1.016l0,5.286Zm26.088,23.377l-0,4.066l-1.355,0.135c-6.234,0.61 -9.351,-2.981 -9.351,-10.774l-0,-19.176l-5.828,0l4.269,-4.066l1.559,0l-0,-8.199c0.542,0 1.219,0 1.897,-0.067l1.355,-0c1.017,-0 1.626,0.474 1.762,1.355c-0,0.068 -0,2.371 0.068,6.911l7.318,0l-0,4.066l-7.318,0l-0,19.989c-0,3.998 1.355,5.963 4.065,5.963c0.407,0 0.813,-0.067 1.22,-0.135l0.339,-0.068Zm35.642,-5.556c-0.949,2.981 -2.711,5.353 -5.353,7.115c-2.575,1.761 -5.489,2.574 -8.741,2.574c-4.811,0 -8.606,-1.694 -11.316,-5.149c-2.575,-3.117 -3.863,-7.115 -3.863,-12.062c0,-4.743 1.288,-8.673 3.93,-11.655c2.711,-3.184 6.505,-4.811 11.249,-4.811c4.878,0 8.673,1.694 11.248,5.015c2.372,2.981 3.456,6.911 3.32,11.858l-24.597,-0c0,2.371 0.678,4.879 1.965,7.454c0.813,1.49 1.965,2.71 3.524,3.659c1.558,0.88 3.184,1.355 4.946,1.355c3.727,-0 6.302,-1.355 7.725,-4.066l-1.965,0l-0,-1.423l7.928,0.136Zm-23.242,-10.842l18.16,0c0.068,-2.778 -0.746,-5.014 -2.304,-6.708c-1.559,-1.694 -3.795,-2.507 -6.641,-2.507c-2.71,-0 -4.878,0.88 -6.505,2.574c-1.694,1.762 -2.574,3.998 -2.71,6.641Zm39.572,18.634l0,1.355l-10.096,0l-0,-1.355l1.965,0l-0,-31.712c0.474,0 1.016,0 1.694,-0.068l1.152,0c1.016,0 1.558,0.407 1.694,1.288l-0,6.505l0.135,-0c2.101,-6.099 5.353,-8.944 9.69,-8.673l1.897,0.135l0,4.879l-1.016,-0c-2.71,-0 -4.946,0.949 -6.776,2.846c-1.83,1.897 -2.914,4.201 -3.253,6.911c-0.067,0.678 -0.135,1.559 -0.135,2.508l-0,15.381l3.049,0Z"/><path d="M67.574,181.309l1.491,0.203c-0.271,1.084 -0.678,1.965 -1.355,2.507c-0.678,0.543 -1.423,0.881 -2.44,0.881c-1.22,0 -2.168,-0.474 -2.914,-1.355c-0.745,-0.949 -1.152,-2.236 -1.152,-3.998c0,-1.829 0.407,-3.184 1.152,-4.133c0.746,-0.949 1.694,-1.423 2.846,-1.423c1.085,-0 2.033,0.474 2.779,1.423c0.745,0.949 1.084,2.304 1.084,4.065l-0,0.475l-6.37,-0c0.068,1.152 0.339,2.033 0.813,2.642c0.475,0.61 1.085,0.881 1.762,0.881c1.084,0 1.83,-0.745 2.304,-2.168Zm-4.743,-2.846l4.743,0c-0.068,-0.881 -0.271,-1.558 -0.61,-2.033c-0.474,-0.677 -1.084,-0.948 -1.762,-0.948c-0.677,-0 -1.219,0.271 -1.626,0.813c-0.406,0.542 -0.745,1.219 -0.745,2.168Z"/><path d="M70.555,185.51l1.423,0.271c0.068,0.542 0.271,0.949 0.61,1.22c0.339,0.271 0.813,0.406 1.355,0.406c0.61,0 1.152,-0.135 1.491,-0.474c0.407,-0.271 0.61,-0.745 0.746,-1.355c0.067,-0.339 0.135,-1.152 0.135,-2.304c-0.339,0.474 -0.678,0.813 -1.084,1.016c-0.407,0.204 -0.813,0.339 -1.288,0.339c-1.016,0 -1.897,-0.406 -2.574,-1.287c-0.746,-1.017 -1.152,-2.304 -1.152,-3.998c-0,-1.152 0.203,-2.101 0.542,-2.914c0.339,-0.813 0.813,-1.423 1.355,-1.829c0.542,-0.407 1.152,-0.61 1.829,-0.61c0.475,-0 0.949,0.135 1.356,0.406c0.406,0.271 0.813,0.61 1.084,1.152l-0,-1.287l1.355,-0l0,9.012c0,1.626 -0.135,2.778 -0.406,3.456c-0.272,0.677 -0.678,1.22 -1.288,1.626c-0.61,0.407 -1.287,0.61 -2.168,0.61c-1.084,-0 -1.965,-0.271 -2.575,-0.881c-0.61,-0.61 -0.746,-1.491 -0.746,-2.575Zm1.22,-6.234c0,1.355 0.203,2.372 0.678,2.982c0.474,0.61 1.016,0.948 1.626,0.948c0.678,0 1.22,-0.271 1.694,-0.948c0.474,-0.61 0.678,-1.627 0.678,-2.914c-0,-1.287 -0.204,-2.304 -0.678,-2.914c-0.474,-0.61 -1.016,-0.948 -1.694,-0.948c-0.61,-0 -1.152,0.338 -1.558,0.948c-0.475,0.61 -0.746,1.559 -0.746,2.846Z"/><path d="M79.974,188.695l-0.135,-1.626c0.338,0.135 0.609,0.135 0.813,0.135c0.339,0 0.542,-0.068 0.745,-0.203c0.203,-0.136 0.339,-0.339 0.474,-0.61c0.068,-0.068 0.204,-0.678 0.543,-1.694l-3.253,-10.435l1.559,-0l1.761,6.031c0.204,0.745 0.407,1.558 0.61,2.439c0.136,-0.813 0.339,-1.626 0.61,-2.372l1.83,-6.098l1.423,-0l-3.253,10.571c-0.407,1.355 -0.745,2.303 -1.016,2.778c-0.271,0.474 -0.542,0.813 -0.814,1.016c-0.338,0.203 -0.677,0.271 -1.084,0.271c-0.135,0 -0.474,-0.068 -0.813,-0.203Z"/><path d="M159.593,188.627l-0,-14.433l1.355,0l0,1.355c0.339,-0.542 0.678,-0.948 1.084,-1.219c0.407,-0.271 0.881,-0.407 1.355,-0.407c0.678,0 1.288,0.203 1.83,0.61c0.542,0.407 0.949,1.016 1.287,1.83c0.339,0.813 0.475,1.761 0.475,2.913c-0,1.762 -0.339,3.117 -1.084,4.066c-0.746,0.948 -1.627,1.423 -2.643,1.423c-0.474,-0 -0.881,-0.136 -1.22,-0.339c-0.406,-0.203 -0.745,-0.542 -1.016,-0.949l-0,5.082l-1.423,0l-0,0.068Zm1.287,-9.08c0,1.355 0.204,2.372 0.678,2.982c0.474,0.61 1.016,0.948 1.626,0.948c0.61,0 1.152,-0.338 1.626,-1.016c0.475,-0.678 0.678,-1.694 0.678,-3.049c0,-1.355 -0.203,-2.372 -0.678,-3.049c-0.474,-0.678 -1.016,-0.949 -1.626,-0.949c-0.61,-0 -1.084,0.339 -1.558,1.084c-0.542,0.678 -0.746,1.694 -0.746,3.049Z"/><path d="M168.741,184.697l-0,-10.435l1.287,-0l-0,1.558c0.339,-0.745 0.61,-1.219 0.949,-1.423c0.271,-0.271 0.609,-0.338 0.948,-0.338c0.475,-0 0.949,0.203 1.491,0.542l-0.474,1.626c-0.339,-0.271 -0.678,-0.407 -1.085,-0.407c-0.338,0 -0.609,0.136 -0.813,0.339c-0.271,0.204 -0.406,0.542 -0.542,0.881c-0.203,0.678 -0.271,1.423 -0.271,2.168l0,5.489l-1.49,0Z"/><path d="M173.619,179.479c0,-1.829 0.407,-3.184 1.152,-4.065c0.746,-0.949 1.694,-1.355 2.846,-1.355c1.152,-0 2.101,0.474 2.846,1.355c0.745,0.881 1.152,2.236 1.152,3.93c0,1.897 -0.407,3.252 -1.152,4.201c-0.745,0.949 -1.694,1.355 -2.846,1.355c-1.152,0 -2.1,-0.474 -2.846,-1.355c-0.745,-0.949 -1.152,-2.304 -1.152,-4.066Zm1.491,0c0,1.356 0.271,2.372 0.745,2.982c0.475,0.678 1.085,1.016 1.83,1.016c0.678,0 1.287,-0.338 1.762,-1.016c0.474,-0.678 0.745,-1.694 0.745,-2.982c0,-1.355 -0.271,-2.303 -0.745,-2.981c-0.475,-0.678 -1.084,-1.016 -1.83,-1.016c-0.677,-0 -1.287,0.338 -1.762,1.016c-0.474,0.61 -0.745,1.626 -0.745,2.981Z"/><path d="M183.716,184.765l-0,-9.08l-1.288,-0l0,-1.355l1.288,-0l-0,-1.084c-0,-0.814 0.067,-1.423 0.271,-1.83c0.135,-0.407 0.406,-0.745 0.813,-0.949c0.339,-0.203 0.813,-0.338 1.287,-0.338c0.407,-0 0.881,0.067 1.355,0.203l-0.203,1.558c-0.271,-0.067 -0.61,-0.067 -0.881,-0.067c-0.406,-0 -0.745,0.135 -0.948,0.338c-0.204,0.204 -0.271,0.678 -0.271,1.288l-0,0.948l1.694,0l-0,1.356l-1.694,-0l-0,9.012l-1.423,-0Z"/><path d="M187.917,172.297l-0,-2.033l1.423,0l-0,2.033l-1.423,-0Zm-0,12.4l-0,-10.435l1.423,-0l-0,10.435l-1.423,0Z"/><path d="M190.83,184.765l0,-1.491l5.421,-7.589c-0.61,0.068 -1.152,0.068 -1.626,0.068l-3.456,-0l0,-1.423l6.98,-0l-0,1.152l-4.608,6.64l-0.881,1.22c0.678,-0.068 1.287,-0.068 1.83,-0.068l3.93,0l-0,1.491l-7.59,-0Z"/><path d="M199.775,184.697l-0,-10.435l1.287,-0l0,1.491c0.271,-0.542 0.678,-0.949 1.084,-1.288c0.475,-0.271 0.949,-0.474 1.491,-0.474c0.61,-0 1.084,0.135 1.559,0.474c0.406,0.339 0.677,0.746 0.881,1.355c0.338,-0.609 0.745,-1.084 1.152,-1.355c0.474,-0.271 0.948,-0.474 1.49,-0.474c0.813,-0 1.491,0.271 1.965,0.813c0.475,0.542 0.678,1.423 0.678,2.643l-0,7.182l-1.423,0l-0,-6.572c-0,-0.746 -0.068,-1.288 -0.136,-1.559c-0.135,-0.339 -0.271,-0.542 -0.542,-0.745c-0.271,-0.204 -0.542,-0.271 -0.813,-0.271c-0.61,-0 -1.152,0.271 -1.491,0.745c-0.406,0.474 -0.609,1.287 -0.609,2.304l-0,6.031l-1.423,-0l-0,-6.777c-0,-0.88 -0.136,-1.49 -0.407,-1.829c-0.271,-0.339 -0.61,-0.542 -1.084,-0.542c-0.678,-0 -1.152,0.271 -1.559,0.813c-0.406,0.542 -0.542,1.491 -0.542,2.914l0,5.421l-1.558,-0l-0,0.135Z"/><path d="M219.087,184.765l-0,-1.626c-0.339,0.609 -0.746,1.016 -1.152,1.355c-0.475,0.271 -0.949,0.474 -1.559,0.474c-0.677,0 -1.219,-0.203 -1.762,-0.542c-0.474,-0.339 -0.813,-0.813 -0.948,-1.355c-0.136,-0.542 -0.271,-1.288 -0.271,-2.304l-0,-6.437l1.423,-0l-0,5.759c-0,1.085 0.067,1.762 0.135,2.169c0.136,0.338 0.271,0.677 0.61,0.881c0.271,0.203 0.61,0.338 1.016,0.338c0.678,0 1.288,-0.271 1.694,-0.881c0.407,-0.474 0.543,-1.422 0.543,-2.71l-0,-5.556l1.423,-0l-0,10.435l-1.152,-0Z"/><path d="M222.068,181.58l1.423,-0.271c0.068,0.745 0.339,1.287 0.678,1.626c0.406,0.339 0.881,0.542 1.49,0.542c0.61,0 1.085,-0.135 1.423,-0.474c0.339,-0.339 0.542,-0.678 0.542,-1.152c0,-0.406 -0.135,-0.745 -0.474,-0.949c-0.203,-0.135 -0.677,-0.338 -1.491,-0.609c-1.152,-0.339 -1.897,-0.61 -2.236,-0.881c-0.406,-0.271 -0.677,-0.542 -0.881,-0.949c-0.203,-0.406 -0.338,-0.881 -0.338,-1.355c-0,-0.881 0.271,-1.626 0.88,-2.168c0.543,-0.543 1.356,-0.814 2.372,-0.814c0.61,0 1.22,0.136 1.694,0.339c0.474,0.203 0.881,0.542 1.084,0.949c0.271,0.406 0.407,0.949 0.542,1.626l-1.423,0.271c-0.135,-1.152 -0.745,-1.694 -1.829,-1.694c-0.61,0 -1.084,0.136 -1.423,0.407c-0.271,0.271 -0.474,0.542 -0.474,0.948c-0,0.407 0.135,0.678 0.406,0.881c0.203,0.136 0.678,0.339 1.559,0.61c1.219,0.407 1.965,0.678 2.303,0.949c0.339,0.203 0.61,0.542 0.814,0.948c0.203,0.407 0.271,0.881 0.271,1.356c-0,1.016 -0.339,1.829 -0.949,2.439c-0.61,0.61 -1.491,0.949 -2.575,0.949c-1.829,-0.204 -3.049,-1.288 -3.388,-3.524Z"/><path d="M100.37,177.311l-2.236,0.474c-0.136,-1.084 -0.678,-1.626 -1.558,-1.626c-0.543,0 -1.017,0.204 -1.356,0.678c-0.339,0.474 -0.542,1.287 -0.542,2.371c0,1.22 0.203,2.101 0.542,2.643c0.339,0.542 0.813,0.745 1.356,0.745c0.406,0 0.745,-0.135 1.016,-0.406c0.271,-0.271 0.474,-0.813 0.61,-1.559l2.236,0.475c-0.474,2.507 -1.762,3.794 -3.93,3.794c-1.423,0 -2.44,-0.542 -3.117,-1.558c-0.678,-1.084 -1.017,-2.304 -1.017,-3.795c0,-1.762 0.407,-3.117 1.152,-4.065c0.746,-0.949 1.762,-1.423 2.982,-1.423c1.016,-0 1.829,0.271 2.439,0.813c0.678,0.474 1.152,1.287 1.423,2.439Z" style="fill:#e30613;"/><path d="M101.319,181.716l2.236,-0.407c0.203,1.084 0.813,1.626 1.829,1.626c0.542,0 0.949,-0.135 1.22,-0.339c0.271,-0.203 0.407,-0.474 0.407,-0.813c-0,-0.203 -0.068,-0.406 -0.204,-0.542c-0.135,-0.135 -0.338,-0.271 -0.745,-0.339c-1.83,-0.474 -3.049,-0.948 -3.524,-1.423c-0.609,-0.542 -0.948,-1.287 -0.948,-2.303c-0,-0.949 0.339,-1.762 0.948,-2.304c0.61,-0.61 1.491,-0.881 2.711,-0.881c1.152,-0 1.965,0.203 2.575,0.677c0.61,0.407 1.016,1.152 1.219,2.101l-2.1,0.474c-0.203,-0.813 -0.745,-1.287 -1.626,-1.287c-0.542,-0 -0.949,0.068 -1.22,0.271c-0.203,0.136 -0.339,0.339 -0.339,0.61c0,0.203 0.136,0.406 0.339,0.542c0.203,0.135 0.881,0.406 2.033,0.678c1.287,0.338 2.1,0.813 2.575,1.287c0.474,0.474 0.677,1.152 0.677,2.033c0,1.016 -0.339,1.829 -1.016,2.507c-0.678,0.678 -1.626,0.949 -2.846,0.949c-1.084,-0 -2.033,-0.271 -2.711,-0.814c-0.813,-0.474 -1.287,-1.287 -1.49,-2.303Z" style="fill:#e30613;"/><path d="M110.67,179.276c-0,-1.016 0.203,-1.965 0.61,-2.778c0.406,-0.813 0.948,-1.491 1.558,-1.897c0.678,-0.407 1.423,-0.61 2.236,-0.61c1.355,-0 2.44,0.542 3.253,1.626c0.813,1.084 1.152,2.304 1.152,3.795c-0,1.084 -0.204,2.033 -0.61,2.913c-0.407,0.881 -0.949,1.491 -1.627,1.965c-0.677,0.407 -1.422,0.678 -2.168,0.678c-1.287,0 -2.304,-0.474 -3.185,-1.423c-0.745,-1.084 -1.219,-2.439 -1.219,-4.269Zm2.371,0.203c0,1.085 0.204,1.83 0.61,2.372c0.407,0.542 0.881,0.813 1.491,0.813c0.542,0 1.084,-0.271 1.491,-0.813c0.406,-0.542 0.609,-1.355 0.609,-2.372c0,-1.016 -0.203,-1.829 -0.609,-2.371c-0.407,-0.542 -0.881,-0.813 -1.491,-0.813c-0.542,-0 -1.084,0.271 -1.491,0.813c-0.406,0.542 -0.61,1.287 -0.61,2.371Z" style="fill:#e30613;"/><path d="M121.105,174.262l2.1,-0l0,1.423c0.339,-0.542 0.814,-0.949 1.22,-1.22c0.474,-0.271 0.949,-0.406 1.423,-0.406c0.542,-0 1.016,0.135 1.423,0.406c0.407,0.271 0.745,0.678 1.016,1.22c0.407,-0.542 0.814,-0.949 1.22,-1.22c0.407,-0.271 0.881,-0.406 1.423,-0.406c0.61,-0 1.084,0.135 1.491,0.406c0.406,0.271 0.745,0.678 0.948,1.22c0.204,0.542 0.339,1.287 0.339,2.372l0,6.64l-2.236,0l0,-5.963c0,-1.016 -0.068,-1.762 -0.271,-2.1c-0.203,-0.339 -0.474,-0.543 -0.948,-0.543c-0.475,0 -0.881,0.272 -1.22,0.746c-0.339,0.474 -0.475,1.423 -0.475,2.846l0,5.014l-2.236,0l0,-5.76c0,-1.152 -0.067,-1.829 -0.203,-2.168c-0.135,-0.406 -0.474,-0.678 -1.016,-0.678c-0.339,0 -0.61,0.136 -0.949,0.339c-0.271,0.204 -0.474,0.542 -0.61,0.949c-0.135,0.406 -0.203,1.152 -0.203,2.168l-0,5.082l-2.236,0l-0,-10.367Z" style="fill:#e30613;"/><path d="M137.571,177.447l-2.033,-0.475c0.271,-1.084 0.677,-1.829 1.22,-2.304c0.542,-0.474 1.422,-0.677 2.439,-0.677c0.949,-0 1.694,0.135 2.168,0.406c0.475,0.271 0.881,0.61 1.084,1.085c0.204,0.474 0.339,1.287 0.339,2.507l0,3.185c0,0.88 0.068,1.558 0.136,2.032c0.067,0.407 0.203,0.881 0.406,1.423l-2.236,0l-0.271,-1.152c-0.406,0.475 -0.813,0.813 -1.22,1.017c-0.474,0.203 -0.88,0.339 -1.423,0.339c-0.813,-0 -1.49,-0.271 -2.032,-0.814c-0.542,-0.542 -0.813,-1.287 -0.813,-2.236c-0,-0.609 0.135,-1.084 0.338,-1.558c0.204,-0.407 0.542,-0.813 0.881,-1.017c0.407,-0.271 1.017,-0.474 1.898,-0.677c1.016,-0.271 1.761,-0.474 2.168,-0.678c-0,-0.61 -0.068,-0.948 -0.136,-1.152c-0.067,-0.203 -0.203,-0.338 -0.474,-0.406c-0.203,-0.136 -0.542,-0.204 -0.949,-0.204c-0.406,0 -0.745,0.068 -0.948,0.272c-0.204,0.203 -0.339,0.542 -0.542,1.084Zm3.049,2.236c-0.271,0.135 -0.745,0.271 -1.355,0.406c-0.678,0.204 -1.152,0.407 -1.356,0.61c-0.203,0.203 -0.338,0.542 -0.338,0.881c-0,0.407 0.135,0.745 0.338,1.016c0.271,0.272 0.543,0.407 0.881,0.407c0.339,0 0.61,-0.135 0.949,-0.339c0.339,-0.203 0.542,-0.474 0.678,-0.813c0.135,-0.271 0.203,-0.881 0.203,-1.626l-0,-0.542Z" style="fill:#e30613;"/><path d="M144.821,185.375l2.575,0.406c0.068,0.407 0.135,0.678 0.339,0.813c0.203,0.136 0.542,0.271 0.948,0.271c0.475,0 0.881,-0.067 1.22,-0.271c0.203,-0.135 0.407,-0.338 0.474,-0.609c0.136,-0.272 0.204,-0.746 0.204,-1.423l-0,-1.559c-0.339,0.542 -0.746,1.016 -1.152,1.287c-0.407,0.272 -0.881,0.407 -1.423,0.407c-0.949,0 -1.762,-0.407 -2.372,-1.287c-0.745,-0.949 -1.152,-2.304 -1.152,-3.998c0,-1.762 0.339,-3.117 1.084,-3.998c0.678,-0.881 1.559,-1.355 2.575,-1.355c0.542,-0 1.017,0.135 1.423,0.406c0.407,0.271 0.813,0.678 1.152,1.288l0,-1.491l2.101,-0l-0,9.351c-0,1.491 -0.136,2.575 -0.407,3.252c-0.271,0.678 -0.677,1.152 -1.287,1.559c-0.542,0.339 -1.355,0.542 -2.372,0.542c-0.949,-0 -1.694,-0.136 -2.236,-0.407c-0.542,-0.271 -1.016,-0.609 -1.287,-1.084c-0.271,-0.474 -0.475,-1.084 -0.475,-1.694l0,-0.406l0.068,-0Zm2.033,-6.167c-0,1.085 0.203,1.898 0.542,2.44c0.339,0.542 0.813,0.745 1.287,0.745c0.542,0 1.017,-0.271 1.423,-0.745c0.407,-0.542 0.61,-1.288 0.61,-2.372c0,-1.084 -0.203,-1.897 -0.542,-2.439c-0.339,-0.542 -0.813,-0.813 -1.355,-0.813c-0.542,-0 -0.949,0.271 -1.355,0.745c-0.407,0.61 -0.61,1.423 -0.61,2.439Z" style="fill:#e30613;"/><path d="M106.672,67.946l20.057,6.301l20.057,-6.301l3.659,1.287l-16.804,7.25l19.311,6.099l-9.486,4.201l-16.805,-7.25l-16.804,7.25l-9.487,-4.201l19.312,-6.099l-16.805,-7.25l3.795,-1.287Zm20.125,-1.559c2.778,0 5.014,1.084 5.014,2.439c0,1.356 -2.236,2.44 -5.014,2.44c-2.778,-0 -5.015,-1.084 -5.015,-2.44c0,-1.355 2.237,-2.439 5.015,-2.439Z" style="fill:#fff;"/><path d="M100.438,82.582l-3.795,20.396l12.536,5.556l0.745,-21.819l-9.486,-4.133Zm52.582,-0l3.795,20.396l-12.536,5.556l-0.745,-21.819l9.486,-4.133Z" style="fill:#dadada;"/></g></svg>